<?xml version="1.0" encoding="utf-8"?>
<!-- Generator: Adobe Illustrator 26.0.1, SVG Export Plug-In . SVG Version: 6.00 Build 0)  -->
<!DOCTYPE svg PUBLIC "-//W3C//DTD SVG 1.1//EN" "http://www.w3.org/Graphics/SVG/1.1/DTD/svg11.dtd" [
	<!ENTITY ns_extend "http://ns.adobe.com/Extensibility/1.0/">
	<!ENTITY ns_ai "http://ns.adobe.com/AdobeIllustrator/10.0/">
	<!ENTITY ns_graphs "http://ns.adobe.com/Graphs/1.0/">
	<!ENTITY ns_vars "http://ns.adobe.com/Variables/1.0/">
	<!ENTITY ns_imrep "http://ns.adobe.com/ImageReplacement/1.0/">
	<!ENTITY ns_sfw "http://ns.adobe.com/SaveForWeb/1.0/">
	<!ENTITY ns_custom "http://ns.adobe.com/GenericCustomNamespace/1.0/">
	<!ENTITY ns_adobe_xpath "http://ns.adobe.com/XPath/1.0/">
]>
<svg version="1.1" id="Layer_1" xmlns:x="&ns_extend;" xmlns:i="&ns_ai;" xmlns:graph="&ns_graphs;"
	 xmlns="http://www.w3.org/2000/svg" xmlns:xlink="http://www.w3.org/1999/xlink" x="0px" y="0px" viewBox="0 0 71.2 72"
	 style="enable-background:new 0 0 71.2 72;" xml:space="preserve">
<style type="text/css">
	.st0{fill:#1D1D1B;}
</style>
<metadata>
	<sfw  xmlns="&ns_sfw;">
		<slices></slices>
		<sliceSourceBounds  bottomLeftOrigin="true" height="62.6" width="62.6" x="918.4" y="-665.3"></sliceSourceBounds>
	</sfw>
</metadata>
<g>
	<rect x="4.3" y="4.7" class="st0" width="2.2" height="4.3"/>
	<rect x="4.3" y="9" class="st0" width="2.2" height="4.3"/>
	<rect x="4.3" y="13.3" class="st0" width="2.2" height="6.5"/>
	<rect x="4.3" y="22" class="st0" width="2.2" height="8.6"/>
	<rect x="4.3" y="37.1" class="st0" width="2.2" height="4.3"/>
	<rect x="4.3" y="43.5" class="st0" width="2.2" height="2.2"/>
	<rect x="4.3" y="47.9" class="st0" width="2.2" height="2.2"/>
	<rect x="4.3" y="52.2" class="st0" width="2.2" height="15.1"/>
	<rect x="6.5" y="4.7" class="st0" width="2.2" height="2.2"/>
	<rect x="6.5" y="17.6" class="st0" width="2.2" height="2.2"/>
	<rect x="6.5" y="24.1" class="st0" width="2.2" height="2.2"/>
	<rect x="6.5" y="32.7" class="st0" width="2.2" height="2.2"/>
	<rect x="6.5" y="41.4" class="st0" width="2.2" height="2.2"/>
	<rect x="6.5" y="52.2" class="st0" width="2.2" height="2.2"/>
	<rect x="6.5" y="65.1" class="st0" width="2.2" height="2.2"/>
	<rect x="8.6" y="4.7" class="st0" width="2.2" height="2.2"/>
	<rect x="8.6" y="9" class="st0" width="2.2" height="4.3"/>
	<rect x="8.6" y="13.3" class="st0" width="2.2" height="2.2"/>
	<rect x="8.6" y="17.6" class="st0" width="2.2" height="2.2"/>
	<rect x="8.6" y="24.1" class="st0" width="2.2" height="4.3"/>
	<rect x="8.6" y="30.6" class="st0" width="2.2" height="4.3"/>
	<rect x="8.6" y="37.1" class="st0" width="2.2" height="2.2"/>
	<rect x="8.6" y="41.4" class="st0" width="2.2" height="2.2"/>
	<rect x="8.6" y="45.7" class="st0" width="2.2" height="2.2"/>
	<rect x="8.6" y="52.2" class="st0" width="2.2" height="2.2"/>
	<rect x="8.6" y="56.5" class="st0" width="2.2" height="6.5"/>
	<rect x="8.6" y="65.1" class="st0" width="2.2" height="2.2"/>
	<rect x="10.8" y="4.7" class="st0" width="2.2" height="2.2"/>
	<rect x="10.8" y="9" class="st0" width="2.2" height="4.3"/>
	<rect x="10.8" y="13.3" class="st0" width="2.2" height="2.2"/>
	<rect x="10.8" y="17.6" class="st0" width="2.2" height="2.2"/>
	<rect x="10.8" y="22" class="st0" width="2.2" height="2.2"/>
	<rect x="10.8" y="30.6" class="st0" width="2.2" height="2.2"/>
	<rect x="10.8" y="34.9" class="st0" width="2.2" height="8.6"/>
	<rect x="10.8" y="45.7" class="st0" width="2.2" height="4.3"/>
	<rect x="10.8" y="52.2" class="st0" width="2.2" height="2.2"/>
	<rect x="10.8" y="56.5" class="st0" width="2.2" height="6.5"/>
	<rect x="10.8" y="65.1" class="st0" width="2.2" height="2.2"/>
	<rect x="12.9" y="4.7" class="st0" width="2.2" height="2.2"/>
	<rect x="12.9" y="9" class="st0" width="2.2" height="4.3"/>
	<rect x="12.9" y="13.3" class="st0" width="2.2" height="2.2"/>
	<rect x="12.9" y="17.6" class="st0" width="2.2" height="2.2"/>
	<rect x="12.9" y="26.3" class="st0" width="2.2" height="2.2"/>
	<rect x="12.9" y="32.7" class="st0" width="2.2" height="4.3"/>
	<rect x="12.9" y="41.4" class="st0" width="2.2" height="8.6"/>
	<rect x="12.9" y="52.2" class="st0" width="2.2" height="2.2"/>
	<rect x="12.9" y="56.5" class="st0" width="2.2" height="6.5"/>
	<rect x="12.9" y="65.1" class="st0" width="2.2" height="2.2"/>
	<rect x="15.1" y="4.7" class="st0" width="2.2" height="2.2"/>
	<rect x="15.1" y="17.6" class="st0" width="2.2" height="2.2"/>
	<rect x="15.1" y="22" class="st0" width="2.2" height="4.3"/>
	<rect x="15.1" y="34.9" class="st0" width="2.2" height="4.3"/>
	<rect x="15.1" y="43.5" class="st0" width="2.2" height="6.5"/>
	<rect x="15.1" y="52.2" class="st0" width="2.2" height="2.2"/>
	<rect x="15.1" y="65.1" class="st0" width="2.2" height="2.2"/>
	<rect x="17.3" y="4.7" class="st0" width="2.2" height="4.3"/>
	<rect x="17.3" y="9" class="st0" width="2.2" height="4.3"/>
	<rect x="17.3" y="13.3" class="st0" width="2.2" height="6.5"/>
	<rect x="17.3" y="22" class="st0" width="2.2" height="2.2"/>
	<rect x="17.3" y="26.3" class="st0" width="2.2" height="2.2"/>
	<rect x="17.3" y="30.6" class="st0" width="2.2" height="2.2"/>
	<rect x="17.3" y="34.9" class="st0" width="2.2" height="2.2"/>
	<rect x="17.3" y="39.2" class="st0" width="2.2" height="2.2"/>
	<rect x="17.3" y="43.5" class="st0" width="2.2" height="2.2"/>
	<rect x="17.3" y="47.9" class="st0" width="2.2" height="2.2"/>
	<rect x="17.3" y="52.2" class="st0" width="2.2" height="15.1"/>
	<rect x="19.4" y="24.1" class="st0" width="2.2" height="2.2"/>
	<rect x="19.4" y="28.4" class="st0" width="2.2" height="8.6"/>
	<rect x="21.6" y="15.5" class="st0" width="2.2" height="4.3"/>
	<rect x="21.6" y="22" class="st0" width="2.2" height="2.2"/>
	<rect x="21.6" y="28.4" class="st0" width="2.2" height="2.2"/>
	<rect x="21.6" y="34.9" class="st0" width="2.2" height="2.2"/>
	<rect x="21.6" y="43.5" class="st0" width="2.2" height="2.2"/>
	<rect x="21.6" y="50" class="st0" width="2.2" height="2.2"/>
	<rect x="21.6" y="54.3" class="st0" width="2.2" height="2.2"/>
	<rect x="21.6" y="58.6" class="st0" width="2.2" height="2.2"/>
	<rect x="21.6" y="65.1" class="st0" width="2.2" height="2.2"/>
	<rect x="23.7" y="11.2" class="st0" width="2.2" height="2.2"/>
	<rect x="23.7" y="19.8" class="st0" width="2.2" height="2.2"/>
	<rect x="23.7" y="24.1" class="st0" width="2.2" height="2.2"/>
	<rect x="23.7" y="28.4" class="st0" width="2.2" height="2.2"/>
	<rect x="23.7" y="32.7" class="st0" width="2.2" height="4.3"/>
	<rect x="23.7" y="41.4" class="st0" width="2.2" height="10.8"/>
	<rect x="23.7" y="60.8" class="st0" width="2.2" height="4.3"/>
	<rect x="25.9" y="4.7" class="st0" width="2.2" height="4.3"/>
	<rect x="25.9" y="9" class="st0" width="2.2" height="4.3"/>
	<rect x="25.9" y="17.6" class="st0" width="2.2" height="4.3"/>
	<rect x="25.9" y="26.3" class="st0" width="2.2" height="4.3"/>
	<rect x="25.9" y="37.1" class="st0" width="2.2" height="6.5"/>
	<rect x="25.9" y="47.9" class="st0" width="2.2" height="2.2"/>
	<rect x="25.9" y="52.2" class="st0" width="2.2" height="12.9"/>
	<rect x="28.1" y="4.7" class="st0" width="2.2" height="2.2"/>
	<rect x="28.1" y="15.5" class="st0" width="2.2" height="2.2"/>
	<rect x="28.1" y="22" class="st0" width="2.2" height="2.2"/>
	<rect x="28.1" y="30.6" class="st0" width="2.2" height="4.3"/>
	<rect x="28.1" y="39.2" class="st0" width="2.2" height="2.2"/>
	<rect x="28.1" y="43.5" class="st0" width="2.2" height="2.2"/>
	<rect x="28.1" y="54.3" class="st0" width="2.2" height="2.2"/>
	<rect x="28.1" y="60.8" class="st0" width="2.2" height="4.3"/>
	<rect x="30.2" y="4.7" class="st0" width="2.2" height="2.2"/>
	<rect x="30.2" y="11.2" class="st0" width="2.2" height="2.2"/>
	<rect x="30.2" y="17.6" class="st0" width="2.2" height="2.2"/>
	<rect x="30.2" y="24.1" class="st0" width="2.2" height="2.2"/>
	<rect x="30.2" y="34.9" class="st0" width="2.2" height="4.3"/>
	<rect x="30.2" y="43.5" class="st0" width="2.2" height="2.2"/>
	<rect x="30.2" y="47.9" class="st0" width="2.2" height="2.2"/>
	<rect x="30.2" y="54.3" class="st0" width="2.2" height="6.5"/>
	<rect x="30.2" y="65.1" class="st0" width="2.2" height="2.2"/>
	<rect x="32.4" y="4.7" class="st0" width="2.2" height="4.3"/>
	<rect x="32.4" y="9" class="st0" width="2.2" height="4.3"/>
	<rect x="32.4" y="13.3" class="st0" width="2.2" height="4.3"/>
	<rect x="32.4" y="37.1" class="st0" width="2.2" height="4.3"/>
	<rect x="32.4" y="43.5" class="st0" width="2.2" height="4.3"/>
	<rect x="32.4" y="50" class="st0" width="2.2" height="6.5"/>
	<rect x="32.4" y="58.6" class="st0" width="2.2" height="4.3"/>
	<rect x="32.4" y="65.1" class="st0" width="2.2" height="2.2"/>
	<rect x="34.5" y="6.9" class="st0" width="2.2" height="2.2"/>
	<rect x="34.5" y="11.2" class="st0" width="2.2" height="2.2"/>
	<rect x="34.5" y="13.3" class="st0" width="2.2" height="8.6"/>
	<rect x="34.5" y="24.1" class="st0" width="2.2" height="2.2"/>
	<rect x="34.5" y="28.4" class="st0" width="2.2" height="2.2"/>
	<rect x="34.5" y="37.1" class="st0" width="2.2" height="4.3"/>
	<rect x="34.5" y="47.9" class="st0" width="2.2" height="2.2"/>
	<rect x="34.5" y="52.2" class="st0" width="2.2" height="2.2"/>
	<rect x="34.5" y="56.5" class="st0" width="2.2" height="6.5"/>
	<rect x="36.7" y="6.9" class="st0" width="2.2" height="2.2"/>
	<rect x="36.7" y="11.2" class="st0" width="2.2" height="2.2"/>
	<rect x="36.7" y="22" class="st0" width="2.2" height="4.3"/>
	<rect x="36.7" y="28.4" class="st0" width="2.2" height="4.3"/>
	<rect x="36.7" y="37.1" class="st0" width="2.2" height="4.3"/>
	<rect x="36.7" y="45.7" class="st0" width="2.2" height="2.2"/>
	<rect x="36.7" y="54.3" class="st0" width="2.2" height="4.3"/>
	<rect x="36.7" y="65.1" class="st0" width="2.2" height="2.2"/>
	<rect x="38.8" y="4.7" class="st0" width="2.2" height="2.2"/>
	<rect x="38.8" y="9" class="st0" width="2.2" height="2.2"/>
	<rect x="38.8" y="13.3" class="st0" width="2.2" height="2.2"/>
	<rect x="38.8" y="17.6" class="st0" width="2.2" height="2.2"/>
	<rect x="38.8" y="22" class="st0" width="2.2" height="2.2"/>
	<rect x="38.8" y="28.4" class="st0" width="2.2" height="4.3"/>
	<rect x="38.8" y="37.1" class="st0" width="2.2" height="2.2"/>
	<rect x="38.8" y="41.4" class="st0" width="2.2" height="4.3"/>
	<rect x="38.8" y="50" class="st0" width="2.2" height="2.2"/>
	<rect x="38.8" y="56.5" class="st0" width="2.2" height="2.2"/>
	<rect x="38.8" y="60.8" class="st0" width="2.2" height="4.3"/>
	<rect x="41" y="4.7" class="st0" width="2.2" height="2.2"/>
	<rect x="41" y="9" class="st0" width="2.2" height="2.2"/>
	<rect x="41" y="13.3" class="st0" width="2.2" height="2.2"/>
	<rect x="41" y="19.8" class="st0" width="2.2" height="2.2"/>
	<rect x="41" y="26.3" class="st0" width="2.2" height="2.2"/>
	<rect x="41" y="30.6" class="st0" width="2.2" height="10.8"/>
	<rect x="41" y="43.5" class="st0" width="2.2" height="4.3"/>
	<rect x="41" y="52.2" class="st0" width="2.2" height="2.2"/>
	<rect x="41" y="56.5" class="st0" width="2.2" height="10.8"/>
	<rect x="43.2" y="4.7" class="st0" width="2.2" height="4.3"/>
	<rect x="43.2" y="11.2" class="st0" width="2.2" height="2.2"/>
	<rect x="43.2" y="13.3" class="st0" width="2.2" height="10.8"/>
	<rect x="43.2" y="28.4" class="st0" width="2.2" height="2.2"/>
	<rect x="43.2" y="32.7" class="st0" width="2.2" height="6.5"/>
	<rect x="43.2" y="41.4" class="st0" width="2.2" height="4.3"/>
	<rect x="43.2" y="47.9" class="st0" width="2.2" height="2.2"/>
	<rect x="43.2" y="54.3" class="st0" width="2.2" height="2.2"/>
	<rect x="43.2" y="65.1" class="st0" width="2.2" height="2.2"/>
	<rect x="45.3" y="4.7" class="st0" width="2.2" height="2.2"/>
	<rect x="45.3" y="9" class="st0" width="2.2" height="4.3"/>
	<rect x="45.3" y="15.5" class="st0" width="2.2" height="2.2"/>
	<rect x="45.3" y="19.8" class="st0" width="2.2" height="4.3"/>
	<rect x="45.3" y="26.3" class="st0" width="2.2" height="8.6"/>
	<rect x="45.3" y="37.1" class="st0" width="2.2" height="4.3"/>
	<rect x="45.3" y="50" class="st0" width="2.2" height="2.2"/>
	<rect x="45.3" y="58.6" class="st0" width="2.2" height="2.2"/>
	<rect x="47.5" y="6.9" class="st0" width="2.2" height="2.2"/>
	<rect x="47.5" y="15.5" class="st0" width="2.2" height="6.5"/>
	<rect x="47.5" y="26.3" class="st0" width="2.2" height="2.2"/>
	<rect x="47.5" y="30.6" class="st0" width="2.2" height="6.5"/>
	<rect x="47.5" y="39.2" class="st0" width="2.2" height="2.2"/>
	<rect x="47.5" y="45.7" class="st0" width="2.2" height="15.1"/>
	<rect x="47.5" y="63" class="st0" width="2.2" height="4.3"/>
	<rect x="49.6" y="22" class="st0" width="2.2" height="12.9"/>
	<rect x="49.6" y="39.2" class="st0" width="2.2" height="6.5"/>
	<rect x="49.6" y="47.9" class="st0" width="2.2" height="2.2"/>
	<rect x="49.6" y="56.5" class="st0" width="2.2" height="2.2"/>
	<rect x="49.6" y="60.8" class="st0" width="2.2" height="6.5"/>
	<rect x="51.8" y="4.7" class="st0" width="2.2" height="4.3"/>
	<rect x="51.8" y="9" class="st0" width="2.2" height="4.3"/>
	<rect x="51.8" y="13.3" class="st0" width="2.2" height="6.5"/>
	<rect x="51.8" y="24.1" class="st0" width="2.2" height="8.6"/>
	<rect x="51.8" y="34.9" class="st0" width="2.2" height="2.2"/>
	<rect x="51.8" y="41.4" class="st0" width="2.2" height="8.6"/>
	<rect x="51.8" y="52.2" class="st0" width="2.2" height="2.2"/>
	<rect x="51.8" y="56.5" class="st0" width="2.2" height="4.3"/>
	<rect x="51.8" y="65.1" class="st0" width="2.2" height="2.2"/>
	<rect x="53.9" y="4.7" class="st0" width="2.2" height="2.2"/>
	<rect x="53.9" y="17.6" class="st0" width="2.2" height="2.2"/>
	<rect x="53.9" y="22" class="st0" width="2.2" height="6.5"/>
	<rect x="53.9" y="34.9" class="st0" width="2.2" height="2.2"/>
	<rect x="53.9" y="41.4" class="st0" width="2.2" height="8.6"/>
	<rect x="53.9" y="56.5" class="st0" width="2.2" height="4.3"/>
	<rect x="53.9" y="65.1" class="st0" width="2.2" height="2.2"/>
	<rect x="56.1" y="4.7" class="st0" width="2.2" height="2.2"/>
	<rect x="56.1" y="9" class="st0" width="2.2" height="4.3"/>
	<rect x="56.1" y="13.3" class="st0" width="2.2" height="2.2"/>
	<rect x="56.1" y="17.6" class="st0" width="2.2" height="2.2"/>
	<rect x="56.1" y="28.4" class="st0" width="2.2" height="2.2"/>
	<rect x="56.1" y="34.9" class="st0" width="2.2" height="4.3"/>
	<rect x="56.1" y="43.5" class="st0" width="2.2" height="2.2"/>
	<rect x="56.1" y="47.9" class="st0" width="2.2" height="19.4"/>
	<rect x="58.3" y="4.7" class="st0" width="2.2" height="2.2"/>
	<rect x="58.3" y="9" class="st0" width="2.2" height="4.3"/>
	<rect x="58.3" y="13.3" class="st0" width="2.2" height="2.2"/>
	<rect x="58.3" y="17.6" class="st0" width="2.2" height="2.2"/>
	<rect x="58.3" y="24.1" class="st0" width="2.2" height="4.3"/>
	<rect x="58.3" y="30.6" class="st0" width="2.2" height="2.2"/>
	<rect x="58.3" y="34.9" class="st0" width="2.2" height="4.3"/>
	<rect x="58.3" y="41.4" class="st0" width="2.2" height="2.2"/>
	<rect x="58.3" y="54.3" class="st0" width="2.2" height="2.2"/>
	<rect x="58.3" y="58.6" class="st0" width="2.2" height="4.3"/>
	<rect x="60.4" y="4.7" class="st0" width="2.2" height="2.2"/>
	<rect x="60.4" y="9" class="st0" width="2.2" height="4.3"/>
	<rect x="60.4" y="13.3" class="st0" width="2.2" height="2.2"/>
	<rect x="60.4" y="17.6" class="st0" width="2.2" height="2.2"/>
	<rect x="60.4" y="26.3" class="st0" width="2.2" height="4.3"/>
	<rect x="60.4" y="34.9" class="st0" width="2.2" height="2.2"/>
	<rect x="60.4" y="47.9" class="st0" width="2.2" height="4.3"/>
	<rect x="60.4" y="54.3" class="st0" width="2.2" height="2.2"/>
	<rect x="60.4" y="58.6" class="st0" width="2.2" height="4.3"/>
	<rect x="62.6" y="4.7" class="st0" width="2.2" height="2.2"/>
	<rect x="62.6" y="17.6" class="st0" width="2.2" height="2.2"/>
	<rect x="62.6" y="26.3" class="st0" width="2.2" height="6.5"/>
	<rect x="62.6" y="34.9" class="st0" width="2.2" height="6.5"/>
	<rect x="62.6" y="43.5" class="st0" width="2.2" height="4.3"/>
	<rect x="62.6" y="50" class="st0" width="2.2" height="6.5"/>
	<rect x="62.6" y="58.6" class="st0" width="2.2" height="2.2"/>
	<rect x="62.6" y="63" class="st0" width="2.2" height="4.3"/>
	<rect x="64.7" y="4.7" class="st0" width="2.2" height="4.3"/>
	<rect x="64.7" y="9" class="st0" width="2.2" height="4.3"/>
	<rect x="64.7" y="13.3" class="st0" width="2.2" height="6.5"/>
	<rect x="64.7" y="24.1" class="st0" width="2.2" height="2.2"/>
	<rect x="64.7" y="30.6" class="st0" width="2.2" height="2.2"/>
	<rect x="64.7" y="34.9" class="st0" width="2.2" height="2.2"/>
	<rect x="64.7" y="41.4" class="st0" width="2.2" height="6.5"/>
	<rect x="64.7" y="50" class="st0" width="2.2" height="2.2"/>
	<rect x="64.7" y="54.3" class="st0" width="2.2" height="4.3"/>
	<rect x="64.7" y="60.8" class="st0" width="2.2" height="2.2"/>
</g>
</svg>
